<svg id="eTyAveiZaGD1" xmlns="http://www.w3.org/2000/svg" xmlns:xlink="http://www.w3.org/1999/xlink" viewBox="0 0 250 250" shape-rendering="geometricPrecision" text-rendering="geometricPrecision" style="background-color:#292929"><g><polygon points="125,30 125,30 125,30 31.9,63.2 46.1,186.3 125,230 125,230 125,230 203.9,186.3 218.1,63.2" fill="#dd0031"/><polygon points="125,30 125,52.2 125,52.1 125,153.4 125,153.4 125,230 125,230 203.9,186.3 218.1,63.2 125,30" fill="#c3002f"/><path d="M125,52.1L66.8,182.6v0h21.7v0l11.7-29.2h49.4l11.7,29.2v0h21.7v0L125,52.1v0v0v0v0Zm17,83.3h-34l17-40.9l17,40.9Z" fill="#fff"/></g></svg>
