<svg id="efPvu7E4cwF1" xmlns="http://www.w3.org/2000/svg" xmlns:xlink="http://www.w3.org/1999/xlink" viewBox="0 0 215 200" shape-rendering="geometricPrecision" text-rendering="geometricPrecision"><path d="M33.971931,-63.4c5.869944,4,2.934972,23.3,2.543642,36.4s1.956648,20,9.00058,31.1c7.043932,11.2,18.783819,26.4,16.631506,35.1s-18.196824,10.8-31.110699,17.1-22.794947,16.8-34.926163,21c-12.131216,4.1-26.708242,2-38.252464-5.2-11.544222-7.1-20.153472-19.1-22.697114-32-2.543643-12.8,1.076156-26.5-.489162-41-1.663151-14.6-8.413586-30.1-4.695955-40.9c3.717631-10.7,17.903327-16.7,31.012867-16.4c13.207373.2,25.338589,6.8,38.839459,4.5c13.403037-2.4,28.27356-13.7,34.143503-9.7Z" transform="matrix(1.566404 0 0 1.213512 114.340245 97.085924)" fill="#2f88ff"/><path d="M33.971931,-63.4c5.869944,4,2.934972,23.3,2.543642,36.4s1.956648,20,9.00058,31.1c7.043932,11.2,18.783819,26.4,16.631506,35.1s-18.196824,10.8-31.110699,17.1-22.794947,16.8-34.926163,21c-12.131216,4.1-26.708242,2-38.252464-5.2-11.544222-7.1-20.153472-19.1-22.697114-32-2.543643-12.8,1.076156-26.5-.489162-41-1.663151-14.6-8.413586-30.1-4.695955-40.9c3.717631-10.7,17.903327-16.7,31.012867-16.4c13.207373.2,25.338589,6.8,38.839459,4.5c13.403037-2.4,28.27356-13.7,34.143503-9.7Z" transform="matrix(1.421811 0 0 1.089095 104.750845 98.554724)" fill="#549dff"/><path d="M33.971931,-63.4c5.869944,4,2.934972,23.3,2.543642,36.4s1.956648,20,9.00058,31.1c7.043932,11.2,18.783819,26.4,16.631506,35.1s-18.196824,10.8-31.110699,17.1-22.794947,16.8-34.926163,21c-12.131216,4.1-26.708242,2-38.252464-5.2-11.544222-7.1-20.153472-19.1-22.697114-32-2.543643-12.8,1.076156-26.5-.489162-41-1.663151-14.6-8.413586-30.1-4.695955-40.9c3.717631-10.7,17.903327-16.7,31.012867-16.4c13.207373.2,25.338589,6.8,38.839459,4.5c13.403037-2.4,28.27356-13.7,34.143503-9.7Z" transform="matrix(1.336907 0 0 0.962037 99.120802 98.882217)" fill="#171515"/></svg>
