<svg width="1920" height="1080" viewBox="0 0 1920 1080" xmlns="http://www.w3.org/2000/svg"><rect width="1920" height="1080" fill="#64a6ff"/><path d="M 0,1080 C 0,1080 0,98 0,98 C -5.491232208983142,83.47239076304501 -10.982464417966284,68.94478152609001 25,68 C 60.982464417966284,67.05521847390999 138.438625462882,79.69326465868492 264,96 C 389.561374537118,112.30673534131508 563.2279625664381,132.28215983917028 540,125 C 516.7720374335619,117.71784016082972 296.6495242713656,83.17809598463396 327,81 C 357.3504757286344,78.82190401536604 638.1739403480997,109.00545622229392 760,105 C 881.8260596519003,100.99454377770608 844.6547143362358,62.800079126190454 828,70 C 811.3452856637642,77.19992087380955 815.2072023069572,129.79422727294428 791,132 C 766.7927976930428,134.20577272705572 714.5164764359353,86.0230117820324 736,70 C 757.4835235640647,53.976988217967595 852.726891949302,70.11372559892612 928,81 C 1003.273108050698,91.88627440107388 1058.5759557668569,97.52208582226314 1163,90 C 1267.4240442331431,82.47791417773686 1420.96928498327,61.797931112021274 1531,69 C 1641.03071501673,76.20206888797873 1707.546904300063,111.28618972965175 1651,118 C 1594.453095699937,124.71381027034825 1414.843097816478,103.0573099693717 1431,100 C 1447.156902183522,96.9426900306283 1659.0807044340252,112.48457039286146 1736,110 C 1812.9192955659748,107.51542960713854 1754.8340844474212,87.00440845918244 1763,82 C 1771.1659155525788,76.99559154081756 1845.5829577762893,87.49779577040877 1920,98 C 1920,98 1920,1080 1920,1080 Z" fill="#2f88ff" opacity="0.05454545454545454"/><path d="M 0,1080 C 0,1080 0,196 0,196 C -56.80400343910024,190.02850541115993 -113.60800687820048,184.05701082231988 -87,195 C -60.39199312179951,205.94298917768012 49.62802407370171,233.80046212188037 110,224 C 170.3719759262983,214.19953787811963 181.09591058339362,166.7411406901587 275,163 C 368.9040894166064,159.2588593098413 545.9883335927238,199.23497511748494 622,218 C 698.0116664072762,236.76502488251506 672.9507550457108,234.31895883990154 667,230 C 661.0492449542892,225.68104116009846 674.2086462244329,219.48918952290893 696,223 C 717.7913537755671,226.51081047709107 748.2146600565574,239.72428306846274 853,228 C 957.7853399434426,216.27571693153726 1136.9327135493372,179.61367820324006 1135,178 C 1133.0672864506628,176.38632179675994 950.0544857460936,209.821004118577 985,224 C 1019.9455142539064,238.178995881423 1272.8493434662887,233.1023053224519 1361,225 C 1449.1506565337113,216.8976946775481 1372.5481403887516,205.7697745916154 1399,209 C 1425.4518596112484,212.2302254083846 1554.9580949787046,229.8185963110865 1575,228 C 1595.0419050212954,226.1814036889135 1505.6194796964298,204.95584016403868 1498,200 C 1490.3805203035702,195.04415983596132 1564.5639862355765,206.35804303275881 1596,202 C 1627.4360137644235,197.64195696724119 1616.1245753612636,177.61198770492607 1663,174 C 1709.8754246387364,170.38801229507393 1814.937712319368,183.19400614753698 1920,196 C 1920,196 1920,1080 1920,1080 Z" fill="#2f88ff" opacity="0.10909090909090909"/><path d="M 0,1080 C 0,1080 0,294 0,294 C 23.545951680526088,278.0223796080112 47.091903361052175,262.04475921602244 90,270 C 132.90809663894782,277.95524078397756 195.17833823631736,309.84334274392154 285,311 C 374.82166176368264,312.15665725607846 492.19474369367845,282.5818698082915 580,269 C 667.8052563063216,255.41813019170849 726.0426869889691,257.8291780229124 695,266 C 663.9573130110309,274.1708219770876 543.6345083504459,288.1014181000588 564,299 C 584.3654916495541,309.8985818999412 745.4192796092477,317.76514957685225 880,325 C 1014.5807203907523,332.23485042314775 1122.688373212563,338.83798359253217 1044,329 C 965.311626787437,319.16201640746783 699.8272275405009,292.8829160530191 762,282 C 824.1727724594991,271.1170839469809 1214.0027166254342,275.6303521953913 1287,276 C 1359.9972833745658,276.3696478046087 1116.1619059577627,272.5956751654158 1128,287 C 1139.8380940422373,301.4043248345842 1407.3496595435158,333.98694714294555 1450,330 C 1492.6503404564842,326.01305285705445 1310.439455868174,285.4565362628019 1357,285 C 1403.560544131826,284.5434637371981 1678.8925169837883,324.1869078058469 1693,325 C 1707.1074830162117,325.8130921941531 1459.9904761966723,287.79583251381047 1482,279 C 1504.0095238033277,270.20416748618953 1795.1455782295222,290.6297621389113 1913,298 C 2030.8544217704778,305.3702378610887 1975.4272108852388,299.6851189305444 1920,294 C 1920,294 1920,1080 1920,1080 Z" fill="#2f88ff" opacity="0.16363636363636364"/><path d="M 0,1080 C 0,1080 0,392 0,392 C 102.92965854052163,410.1878388627681 205.85931708104326,428.37567772553615 222,423 C 238.14068291895674,417.62432227446385 167.49239021634855,388.68512796062345 147,377 C 126.50760978365146,365.31487203937655 156.1711220535625,370.88381043197 204,367 C 251.8288779464375,363.11618956803 317.8231215694015,349.7796303114964 346,356 C 374.1768784305985,362.2203696885036 364.53639166883147,387.9976683220442 402,399 C 439.46360833116853,410.0023316779558 524.0313117552728,406.2296964003267 586,395 C 647.9686882447272,383.7703035996733 687.3383613100773,365.0835460766488 770,369 C 852.6616386899227,372.9164539233512 978.6152430044181,399.43611929307804 1046,408 C 1113.384756995582,416.56388070692196 1122.2006666722498,407.171976751039 1099,404 C 1075.7993333277502,400.828023248961 1020.5820903065828,403.875973702766 1061,404 C 1101.4179096934172,404.124026297234 1237.470972101419,401.32412843789695 1292,398 C 1346.529027898581,394.67587156210305 1319.5340212877413,390.8275125456464 1338,386 C 1356.4659787122587,381.1724874543536 1420.3929427476157,375.36582137951746 1510,388 C 1599.6070572523843,400.63417862048254 1714.8942077217957,431.7092019362837 1771,429 C 1827.1057922782043,426.2907980637163 1824.0302263652013,389.7973708753475 1839,378 C 1853.9697736347987,366.2026291246525 1886.9848868173995,379.10131456232625 1920,392 C 1920,392 1920,1080 1920,1080 Z" fill="#2f88ff" opacity="0.21818181818181817"/><path d="M 0,1080 C 0,1080 0,490 0,490 C -13.869527483451762,478.75056301026797 -27.739054966903524,467.50112602053593 39,470 C 105.73905496690352,472.49887397946407 253.08669238416235,488.74605892812434 343,496 C 432.91330761583765,503.25394107187566 465.39228543025405,501.5146382669668 416,501 C 366.60771456974595,500.4853617330332 235.34416589482151,501.19538800400846 300,492 C 364.6558341051785,482.80461199599154 625.2310509904598,463.7038097169991 744,459 C 862.7689490095402,454.2961902830009 839.7316301433392,463.9893731279951 785,476 C 730.2683698566608,488.0106268720049 643.8424284361829,502.3386977710204 637,506 C 630.1575715638171,509.6613022289796 702.8986561119292,502.6558357879234 778,501 C 853.1013438880708,499.3441642120766 930.5629471161001,503.037959077286 976,511 C 1021.4370528838999,518.962040922714 1034.8495554236708,531.1923279029327 1067,520 C 1099.1504445763292,508.8076720970673 1150.0388311892161,474.19272931098334 1192,457 C 1233.9611688107839,439.80727068901666 1266.9951198194642,440.0367548531342 1280,458 C 1293.0048801805358,475.9632451468658 1285.9806895329273,511.6602512764796 1357,522 C 1428.0193104670727,532.3397487235204 1577.0821220488272,517.3222400409478 1651,510 C 1724.9178779511728,502.6777599590522 1723.6908222717636,503.0507885597292 1756,501 C 1788.3091777282364,498.9492114402708 1854.154588864118,494.4746057201354 1920,490 C 1920,490 1920,1080 1920,1080 Z" fill="#2f88ff" opacity="0.2727272727272727"/><path d="M 0,1080 C 0,1080 0,589 0,589 C 93.30885852032087,580.7919977092363 186.61771704064174,572.5839954184725 188,568 C 189.38228295935826,563.4160045815275 98.83799035775394,562.4560160353464 128,578 C 157.16200964224606,593.5439839646536 306.03032152834254,625.5919404401419 336,619 C 365.96967847165746,612.4080595598581 277.04072352887584,567.176222204086 328,559 C 378.95927647112416,550.823777795914 569.806784356154,579.7031707435142 621,585 C 672.193215643846,590.2968292564858 583.7321390465082,572.0110948218572 557,572 C 530.2678609534918,571.9889051781428 565.2646594578133,590.2524499690569 665,607 C 764.7353405421867,623.7475500309431 929.2092231222387,638.9791053019147 998,623 C 1066.7907768777613,607.0208946980853 1039.8984480532324,559.8311288232845 1033,554 C 1026.1015519467676,548.1688711767155 1039.1969846648321,583.696379404947 1060,601 C 1080.8030153351679,618.303620595053 1109.3136132874395,617.3833535569275 1186,610 C 1262.6863867125605,602.6166464430725 1387.5485621854098,588.7702063673427 1396,583 C 1404.4514378145902,577.2297936326573 1296.4921379709212,579.535820973702 1350,571 C 1403.5078620290788,562.464179026298 1618.4828859309057,543.0865097378495 1682,555 C 1745.5171140690943,566.9134902621505 1657.5763183054555,610.1181400749002 1672,621 C 1686.4236816945445,631.8818599250998 1803.2118408472722,610.44092996255 1920,589 C 1920,589 1920,1080 1920,1080 Z" fill="#2f88ff" opacity="0.32727272727272727"/><path d="M 0,1080 C 0,1080 0,687 0,687 C 13.77449434394196,692.842005573134 27.54898868788392,698.6840111462678 72,703 C 116.45101131211608,707.3159888537322 191.5785395924063,710.1059609880625 271,707 C 350.4214604075937,703.8940390119375 434.1368529424909,694.8921449014823 502,701 C 569.8631470575091,707.1078550985177 621.8740486376302,728.3254594060083 684,722 C 746.1259513623698,715.6745405939917 818.3669525069887,681.8060174744847 775,681 C 731.6330474930113,680.1939825255153 572.6581413344151,712.450470696053 582,711 C 591.3418586655849,709.549529303947 769.0004821553506,674.3920997413034 829,676 C 888.9995178446494,677.6079002586966 831.3399300441827,715.9811303387335 883,721 C 934.6600699558173,726.0188696612665 1095.639797667919,697.6833789037628 1136,686 C 1176.360202332081,674.3166210962372 1096.1008792841415,679.285354046215 1069,675 C 1041.8991207158585,670.714645953785 1067.9566851955149,657.175204911377 1199,661 C 1330.0433148044851,664.824795088623 1566.0723799337984,686.0138263082774 1622,699 C 1677.9276200662016,711.9861736917226 1553.7537950692913,716.7694898555134 1579,706 C 1604.2462049307087,695.2305101444866 1778.9124397890366,668.9082142696693 1808,669 C 1837.0875602109634,669.0917857303307 1720.5964457745608,695.5976530658088 1715,703 C 1709.4035542254392,710.4023469341912 1814.7017771127196,698.7011734670956 1920,687 C 1920,687 1920,1080 1920,1080 Z" fill="#2f88ff" opacity="0.3818181818181818"/><path d="M 0,1080 C 0,1080 0,785 0,785 C -75.34175992661041,790.3700307464899 -150.68351985322082,795.7400614929799 -93,788 C -35.31648014677918,780.2599385070201 155.39231948627287,759.4097847745704 242,768 C 328.60768051372713,776.5902152254296 311.11424190812943,814.6207994087383 322,816 C 332.88575809187057,817.3792005912617 372.1507128812093,782.1070175904767 467,764 C 561.8492871187907,745.8929824095233 712.2829065670335,744.951130229355 736,759 C 759.7170934329665,773.048869770645 656.7176608506564,802.0884614921033 694,810 C 731.2823391493436,817.9115385078967 908.8464500303403,804.6950238022318 982,802 C 1055.1535499696597,799.3049761977682 1023.8965390279824,807.1314432989691 971,802 C 918.1034609720176,796.8685567010309 843.5673938577303,778.7792030018917 894,782 C 944.4326061422697,785.2207969981083 1119.8338855410962,809.7517446934638 1154,818 C 1188.1661144589038,826.2482553065362 1081.0970639778852,818.2138182242531 1097,798 C 1112.9029360221148,777.7861817757469 1251.7778585473623,745.3929824095234 1380,752 C 1508.2221414526377,758.6070175904766 1625.7915018326657,804.2142521376536 1668,813 C 1710.2084981673343,821.7857478623464 1677.0561341219743,793.7500090398624 1691,780 C 1704.9438658780257,766.2499909601376 1765.983961679436,766.7857117028964 1812,770 C 1858.016038320564,773.2142882971036 1889.008019160282,779.1071441485518 1920,785 C 1920,785 1920,1080 1920,1080 Z" fill="#2f88ff" opacity="0.43636363636363634"/><path d="M 0,1080 C 0,1080 0,883 0,883 C 128.47416118196162,879.6173394551726 256.94832236392324,876.2346789103451 308,869 C 359.05167763607676,861.7653210896549 332.68087172626855,850.6786238137921 270,864 C 207.31912827373145,877.3213761862079 108.32819073100245,915.0508258344868 184,915 C 259.67180926899755,914.9491741655132 510.0063653497217,877.1180728482602 639,873 C 767.9936346502783,868.8819271517398 775.6463478701106,898.4768827724719 770,902 C 764.3536521298894,905.5231172275281 745.4082431698359,882.9743960618524 760,876 C 774.5917568301641,869.0256039381476 822.7206794505455,877.6255329801186 853,884 C 883.2793205494545,890.3744670198814 895.7090390279822,894.5234720176733 921,896 C 946.2909609720178,897.4765279823267 984.4431644375254,896.2805789491891 1016,897 C 1047.5568355624746,897.7194210508109 1072.5183032219168,900.3542121855703 1105,905 C 1137.4816967780832,909.6457878144297 1177.4836226748084,916.3025723085296 1213,903 C 1248.5163773251916,889.6974276914704 1279.54720607885,856.4354985803112 1370,852 C 1460.45279392115,847.5645014196888 1610.3275530097928,871.9554333702258 1685,886 C 1759.6724469902072,900.0445666297742 1759.1425818819785,903.7427679387855 1738,909 C 1716.8574181180215,914.2572320612145 1675.102119462292,921.0734948746327 1702,917 C 1728.897880537708,912.9265051253673 1824.4489402688541,897.9632525626837 1920,883 C 1920,883 1920,1080 1920,1080 Z" fill="#2f88ff" opacity="0.4909090909090909"/><path d="M 0,1080 C 0,1080 0,981 0,981 C -30.576902139692404,988.1912163520469 -61.15380427938481,995.3824327040937 -16,1001 C 29.153804279384808,1006.6175672959063 150.03831497784682,1010.661485535672 201,998 C 251.96168502215318,985.338514464328 233.0005443679974,955.9716251532179 253,947 C 272.9994556320026,938.0283748467821 331.9595075501636,949.4520138514565 416,959 C 500.0404924498364,968.5479861485435 609.1614254313482,976.2203194409561 605,974 C 600.8385745686518,971.7796805590439 483.3947907244436,959.6667083847188 528,967 C 572.6052092755564,974.3332916152812 779.2594116708774,1001.1128470201679 904,1001 C 1028.7405883291226,1000.8871529798321 1071.5675625920471,973.8819035346097 1148,978 C 1224.4324374079529,982.1180964653903 1334.4703379609343,1017.3595388413934 1304,1013 C 1273.5296620390657,1008.6404611586066 1102.551085564216,964.6799410998169 1024,960 C 945.4489144357839,955.3200589001831 959.3253197822012,989.9206967593385 1101,1001 C 1242.6746802177988,1012.0793032406615 1512.1476353069795,999.6372718628293 1611,997 C 1709.8523646930205,994.3627281371707 1638.084138989882,1001.5302157893448 1579,991 C 1519.915861010118,980.4697842106552 1473.5158087334935,952.2418649797917 1476,958 C 1478.4841912665065,963.7581350202083 1529.8526260761448,1003.502324291488 1612,1013 C 1694.1473739238552,1022.497675708512 1807.0736869619277,1001.748837854256 1920,981 C 1920,981 1920,1080 1920,1080 Z" fill="#2f88ff" opacity="0.5454545454545454"/></svg>