<svg id="visual" viewBox="0 0 1920 200" width="1920" height="200" xmlns="http://www.w3.org/2000/svg" xmlns:xlink="http://www.w3.org/1999/xlink" version="1.1">
	<path d="M0 66L29.2 68.7C58.3 71.3 116.7 76.7 174.8 78.2C233 79.7 291 77.3 349.2 79.2C407.3 81 465.7 87 523.8 88.8C582 90.7 640 88.3 698.2 83.5C756.3 78.7 814.7 71.3 872.8 71C931 70.7 989 77.3 1047.2 76.3C1105.3 75.3 1163.7 66.7 1221.8 62C1280 57.3 1338 56.7 1396.2 59C1454.3 61.3 1512.7 66.7 1570.8 67.3C1629 68 1687 64 1745.2 62.2C1803.3 60.3 1861.7 60.7 1890.8 60.8L1920 61L1920 201L1890.8 201C1861.7 201 1803.3 201 1745.2 201C1687 201 1629 201 1570.8 201C1512.7 201 1454.3 201 1396.2 201C1338 201 1280 201 1221.8 201C1163.7 201 1105.3 201 1047.2 201C989 201 931 201 872.8 201C814.7 201 756.3 201 698.2 201C640 201 582 201 523.8 201C465.7 201 407.3 201 349.2 201C291 201 233 201 174.8 201C116.7 201 58.3 201 29.2 201L0 201Z" fill="#f6faff">
	</path>
	<path d="M0 94L29.2 92.8C58.3 91.7 116.7 89.3 174.8 84.5C233 79.7 291 72.3 349.2 71.3C407.3 70.3 465.7 75.7 523.8 82C582 88.3 640 95.7 698.2 93.5C756.3 91.3 814.7 79.7 872.8 78.8C931 78 989 88 1047.2 91.3C1105.3 94.7 1163.7 91.3 1221.8 86.7C1280 82 1338 76 1396.2 78.5C1454.3 81 1512.7 92 1570.8 92.8C1629 93.7 1687 84.3 1745.2 81C1803.3 77.7 1861.7 80.3 1890.8 81.7L1920 83L1920 201L1890.8 201C1861.7 201 1803.3 201 1745.2 201C1687 201 1629 201 1570.8 201C1512.7 201 1454.3 201 1396.2 201C1338 201 1280 201 1221.8 201C1163.7 201 1105.3 201 1047.2 201C989 201 931 201 872.8 201C814.7 201 756.3 201 698.2 201C640 201 582 201 523.8 201C465.7 201 407.3 201 349.2 201C291 201 233 201 174.8 201C116.7 201 58.3 201 29.2 201L0 201Z" fill="#e4f0ff">
	</path>
	<path d="M0 88L29.2 90.8C58.3 93.7 116.7 99.3 174.8 102.8C233 106.3 291 107.7 349.2 107.3C407.3 107 465.7 105 523.8 102.2C582 99.3 640 95.7 698.2 95.5C756.3 95.3 814.7 98.7 872.8 100.7C931 102.7 989 103.3 1047.2 102.7C1105.3 102 1163.7 100 1221.8 95.5C1280 91 1338 84 1396.2 84C1454.3 84 1512.7 91 1570.8 91.3C1629 91.7 1687 85.3 1745.2 83.2C1803.3 81 1861.7 83 1890.8 84L1920 85L1920 201L1890.8 201C1861.7 201 1803.3 201 1745.2 201C1687 201 1629 201 1570.8 201C1512.7 201 1454.3 201 1396.2 201C1338 201 1280 201 1221.8 201C1163.7 201 1105.3 201 1047.2 201C989 201 931 201 872.8 201C814.7 201 756.3 201 698.2 201C640 201 582 201 523.8 201C465.7 201 407.3 201 349.2 201C291 201 233 201 174.8 201C116.7 201 58.3 201 29.2 201L0 201Z" fill="#d3e6ff">
	</path>
	<path d="M0 90L29.2 90.5C58.3 91 116.7 92 174.8 93.8C233 95.7 291 98.3 349.2 97.7C407.3 97 465.7 93 523.8 92.3C582 91.7 640 94.3 698.2 97.2C756.3 100 814.7 103 872.8 103.5C931 104 989 102 1047.2 99C1105.3 96 1163.7 92 1221.8 92.8C1280 93.7 1338 99.3 1396.2 101.5C1454.3 103.7 1512.7 102.3 1570.8 102.2C1629 102 1687 103 1745.2 103.2C1803.3 103.3 1861.7 102.7 1890.8 102.3L1920 102L1920 201L1890.8 201C1861.7 201 1803.3 201 1745.2 201C1687 201 1629 201 1570.8 201C1512.7 201 1454.3 201 1396.2 201C1338 201 1280 201 1221.8 201C1163.7 201 1105.3 201 1047.2 201C989 201 931 201 872.8 201C814.7 201 756.3 201 698.2 201C640 201 582 201 523.8 201C465.7 201 407.3 201 349.2 201C291 201 233 201 174.8 201C116.7 201 58.3 201 29.2 201L0 201Z" fill="#c2dcff">
	</path>
	<path d="M0 102L29.2 102.2C58.3 102.3 116.7 102.7 174.8 105.5C233 108.3 291 113.7 349.2 114.3C407.3 115 465.7 111 523.8 108.3C582 105.7 640 104.3 698.2 105.7C756.3 107 814.7 111 872.8 114.8C931 118.7 989 122.3 1047.2 120C1105.3 117.7 1163.7 109.3 1221.8 106C1280 102.7 1338 104.3 1396.2 107C1454.3 109.7 1512.7 113.3 1570.8 117.3C1629 121.3 1687 125.7 1745.2 125.3C1803.3 125 1861.7 120 1890.8 117.5L1920 115L1920 201L1890.8 201C1861.7 201 1803.3 201 1745.2 201C1687 201 1629 201 1570.8 201C1512.7 201 1454.3 201 1396.2 201C1338 201 1280 201 1221.8 201C1163.7 201 1105.3 201 1047.2 201C989 201 931 201 872.8 201C814.7 201 756.3 201 698.2 201C640 201 582 201 523.8 201C465.7 201 407.3 201 349.2 201C291 201 233 201 174.8 201C116.7 201 58.3 201 29.2 201L0 201Z" fill="#b1d2ff">
	</path>
	<path d="M0 114L29.2 117.2C58.3 120.3 116.7 126.7 174.8 126.7C233 126.7 291 120.3 349.2 116.8C407.3 113.3 465.7 112.7 523.8 114C582 115.3 640 118.7 698.2 119C756.3 119.3 814.7 116.7 872.8 118.3C931 120 989 126 1047.2 127.8C1105.3 129.7 1163.7 127.3 1221.8 124.5C1280 121.7 1338 118.3 1396.2 117.3C1454.3 116.3 1512.7 117.7 1570.8 119C1629 120.3 1687 121.7 1745.2 124C1803.3 126.3 1861.7 129.7 1890.8 131.3L1920 133L1920 201L1890.8 201C1861.7 201 1803.3 201 1745.2 201C1687 201 1629 201 1570.8 201C1512.7 201 1454.3 201 1396.2 201C1338 201 1280 201 1221.8 201C1163.7 201 1105.3 201 1047.2 201C989 201 931 201 872.8 201C814.7 201 756.3 201 698.2 201C640 201 582 201 523.8 201C465.7 201 407.3 201 349.2 201C291 201 233 201 174.8 201C116.7 201 58.3 201 29.2 201L0 201Z" fill="#a0c7ff">
	</path>
	<path d="M0 144L29.2 143.8C58.3 143.7 116.7 143.3 174.8 139.8C233 136.3 291 129.7 349.2 129C407.3 128.3 465.7 133.7 523.8 136.3C582 139 640 139 698.2 139.2C756.3 139.3 814.7 139.7 872.8 136.7C931 133.7 989 127.3 1047.2 127.7C1105.3 128 1163.7 135 1221.8 137.8C1280 140.7 1338 139.3 1396.2 139.7C1454.3 140 1512.7 142 1570.8 142.2C1629 142.3 1687 140.7 1745.2 137.2C1803.3 133.7 1861.7 128.3 1890.8 125.7L1920 123L1920 201L1890.8 201C1861.7 201 1803.3 201 1745.2 201C1687 201 1629 201 1570.8 201C1512.7 201 1454.3 201 1396.2 201C1338 201 1280 201 1221.8 201C1163.7 201 1105.3 201 1047.2 201C989 201 931 201 872.8 201C814.7 201 756.3 201 698.2 201C640 201 582 201 523.8 201C465.7 201 407.3 201 349.2 201C291 201 233 201 174.8 201C116.7 201 58.3 201 29.2 201L0 201Z" fill="#90bdff">
	</path>
	<path d="M0 146L29.2 146.2C58.3 146.3 116.7 146.7 174.8 147C233 147.3 291 147.7 349.2 146.8C407.3 146 465.7 144 523.8 143.2C582 142.3 640 142.7 698.2 142.5C756.3 142.3 814.7 141.7 872.8 141C931 140.3 989 139.7 1047.2 139.2C1105.3 138.7 1163.7 138.3 1221.8 139.5C1280 140.7 1338 143.3 1396.2 144.7C1454.3 146 1512.7 146 1570.8 146.8C1629 147.7 1687 149.3 1745.2 147.5C1803.3 145.7 1861.7 140.3 1890.8 137.7L1920 135L1920 201L1890.8 201C1861.7 201 1803.3 201 1745.2 201C1687 201 1629 201 1570.8 201C1512.7 201 1454.3 201 1396.2 201C1338 201 1280 201 1221.8 201C1163.7 201 1105.3 201 1047.2 201C989 201 931 201 872.8 201C814.7 201 756.3 201 698.2 201C640 201 582 201 523.8 201C465.7 201 407.3 201 349.2 201C291 201 233 201 174.8 201C116.7 201 58.3 201 29.2 201L0 201Z" fill="#7fb3ff">
	</path>
	<path d="M0 147L29.2 148.7C58.3 150.3 116.7 153.7 174.8 155.2C233 156.7 291 156.3 349.2 156.8C407.3 157.3 465.7 158.7 523.8 159.3C582 160 640 160 698.2 158.7C756.3 157.3 814.7 154.7 872.8 152.8C931 151 989 150 1047.2 150.8C1105.3 151.7 1163.7 154.3 1221.8 154.8C1280 155.3 1338 153.7 1396.2 151.7C1454.3 149.7 1512.7 147.3 1570.8 147.5C1629 147.7 1687 150.3 1745.2 150.8C1803.3 151.3 1861.7 149.7 1890.8 148.8L1920 148L1920 201L1890.8 201C1861.7 201 1803.3 201 1745.2 201C1687 201 1629 201 1570.8 201C1512.7 201 1454.3 201 1396.2 201C1338 201 1280 201 1221.8 201C1163.7 201 1105.3 201 1047.2 201C989 201 931 201 872.8 201C814.7 201 756.3 201 698.2 201C640 201 582 201 523.8 201C465.7 201 407.3 201 349.2 201C291 201 233 201 174.8 201C116.7 201 58.3 201 29.2 201L0 201Z" fill="#6da8ff">
	</path>
	<path d="M0 170L29.2 169.5C58.3 169 116.7 168 174.8 166.2C233 164.3 291 161.7 349.2 160.3C407.3 159 465.7 159 523.8 158.5C582 158 640 157 698.2 158.2C756.3 159.3 814.7 162.7 872.8 163C931 163.3 989 160.7 1047.2 161.2C1105.3 161.7 1163.7 165.3 1221.8 165.5C1280 165.7 1338 162.3 1396.2 162.2C1454.3 162 1512.7 165 1570.8 164.7C1629 164.3 1687 160.7 1745.2 161C1803.3 161.3 1861.7 165.7 1890.8 167.8L1920 170L1920 201L1890.8 201C1861.7 201 1803.3 201 1745.2 201C1687 201 1629 201 1570.8 201C1512.7 201 1454.3 201 1396.2 201C1338 201 1280 201 1221.8 201C1163.7 201 1105.3 201 1047.2 201C989 201 931 201 872.8 201C814.7 201 756.3 201 698.2 201C640 201 582 201 523.8 201C465.7 201 407.3 201 349.2 201C291 201 233 201 174.8 201C116.7 201 58.3 201 29.2 201L0 201Z" fill="#5b9dff">
	</path>
	<path d="M0 170L29.2 169.7C58.3 169.3 116.7 168.7 174.8 169.8C233 171 291 174 349.2 175.5C407.3 177 465.7 177 523.8 176.5C582 176 640 175 698.2 174.3C756.3 173.7 814.7 173.3 872.8 172.5C931 171.7 989 170.3 1047.2 170.7C1105.3 171 1163.7 173 1221.8 174.3C1280 175.7 1338 176.3 1396.2 175.3C1454.3 174.3 1512.7 171.7 1570.8 171.5C1629 171.3 1687 173.7 1745.2 174.7C1803.3 175.7 1861.7 175.3 1890.8 175.2L1920 175L1920 201L1890.8 201C1861.7 201 1803.3 201 1745.2 201C1687 201 1629 201 1570.8 201C1512.7 201 1454.3 201 1396.2 201C1338 201 1280 201 1221.8 201C1163.7 201 1105.3 201 1047.2 201C989 201 931 201 872.8 201C814.7 201 756.3 201 698.2 201C640 201 582 201 523.8 201C465.7 201 407.3 201 349.2 201C291 201 233 201 174.8 201C116.7 201 58.3 201 29.2 201L0 201Z" fill="#4793ff">
	</path>
	<path d="M0 182L29.2 182C58.3 182 116.7 182 174.8 181.8C233 181.7 291 181.3 349.2 182C407.3 182.7 465.7 184.3 523.8 184.2C582 184 640 182 698.2 182C756.3 182 814.7 184 872.8 183.8C931 183.7 989 181.3 1047.2 181.2C1105.3 181 1163.7 183 1221.8 183C1280 183 1338 181 1396.2 180.7C1454.3 180.3 1512.7 181.7 1570.8 183C1629 184.3 1687 185.7 1745.2 185.2C1803.3 184.7 1861.7 182.3 1890.8 181.2L1920 180L1920 201L1890.8 201C1861.7 201 1803.3 201 1745.2 201C1687 201 1629 201 1570.8 201C1512.7 201 1454.3 201 1396.2 201C1338 201 1280 201 1221.8 201C1163.7 201 1105.3 201 1047.2 201C989 201 931 201 872.8 201C814.7 201 756.3 201 698.2 201C640 201 582 201 523.8 201C465.7 201 407.3 201 349.2 201C291 201 233 201 174.8 201C116.7 201 58.3 201 29.2 201L0 201Z" fill="#2f88ff">
	</path>
</svg>
