<svg width="100%" height="100%" id="svg" viewBox="0 0 1440 700" xmlns="http://www.w3.org/2000/svg" class="transition duration-300 ease-in-out delay-150">
	<path d="M 0,700 C 0,700 0,140 0,140 C 24.302811175140242,135.96564919411378 48.605622350280484,131.93129838822753 78,118 C 107.39437764971952,104.06870161177247 141.88032177401826,80.24045564120368 165,96 C 188.11967822598174,111.75954435879632 199.8730905536464,167.10687904695777 227,180 C 254.1269094463536,192.89312095304223 296.62731601139603,163.33202817096512 327,159 C 357.37268398860397,154.66797182903488 375.6176454007693,175.5650082691817 401,164 C 426.3823545992307,152.4349917308183 458.90210238552714,108.40793875230804 485,99 C 511.09789761447286,89.59206124769196 530.7739450571221,114.80323672158619 552,134 C 573.2260549428779,153.1967632784138 596.0021173859847,166.37911436134718 629,168 C 661.9978826140153,169.62088563865282 705.2175853989395,159.68030583302502 733,167 C 760.7824146010605,174.31969416697498 773.1275410182577,198.89966230655267 798,190 C 822.8724589817423,181.10033769344733 860.2722505280301,138.7210449407643 887,139 C 913.7277494719699,139.2789550592357 929.7834568696215,182.2161579303902 956,189 C 982.2165431303785,195.7838420696098 1018.593921993484,166.41432333767486 1047,146 C 1075.406078006516,125.58567666232514 1095.8408551564423,114.12654871891031 1121,110 C 1146.1591448435577,105.87345128108969 1176.0426573807476,109.07948178668386 1207,123 C 1237.9573426192524,136.92051821331614 1269.9885153205678,161.55552413435436 1292,177 C 1314.0114846794322,192.44447586564564 1326.0032813369808,198.69842167589874 1349,191 C 1371.9967186630192,183.30157832410126 1405.9983593315096,161.65078916205061 1440,140 C 1440,140 1440,700 1440,700 Z" stroke="none" stroke-width="0" fill="#2f88ff" fill-opacity="0.265" class="transition-all duration-300 ease-in-out delay-150 path-0">
	</path>
	<path d="M 0,700 C 0,700 0,280 0,280 C 33.91001009312931,258.4592021719901 67.82002018625862,236.91840434398017 94,248 C 120.17997981374138,259.08159565601983 138.62992934809483,302.7855847960693 166,307 C 193.37007065190517,311.2144152039307 229.660262421362,275.93925647174245 254,270 C 278.339737578638,264.06074352825755 290.7290209664573,287.45738931696087 312,305 C 333.2709790335427,322.54261068303913 363.42365371280886,334.23118626041406 395,314 C 426.57634628719114,293.76881373958594 459.5763641823073,241.61786564138288 486,244 C 512.4236358176927,246.38213435861712 532.2708895579618,303.29735117405437 559,323 C 585.7291104420382,342.70264882594563 619.3400775858456,325.1927296623996 646,307 C 672.6599224141544,288.8072703376004 692.3688000986558,269.9317301763473 718,265 C 743.6311999013442,260.0682698236527 775.184722019531,269.0803496322113 804,262 C 832.815277980469,254.91965036778868 858.8923118232198,231.7468712948074 880,233 C 901.1076881767802,234.2531287051926 917.2460306875902,259.93216518855917 945,278 C 972.7539693124098,296.06783481144083 1012.1235654264192,306.524467950956 1040,310 C 1067.8764345735808,313.475532049044 1084.259707606733,309.96996300761674 1114,307 C 1143.740292393267,304.03003699238326 1186.837604146649,301.59568001857696 1214,306 C 1241.162395853351,310.40431998142304 1252.3898758066712,321.64731691807543 1274,321 C 1295.6101241933288,320.35268308192457 1327.6028926266654,307.8150523091213 1357,299 C 1386.3971073733346,290.1849476908787 1413.1985536866673,285.0924738454394 1440,280 C 1440,280 1440,700 1440,700 Z" stroke="none" stroke-width="0" fill="#2f88ff" fill-opacity="0.4" class="transition-all duration-300 ease-in-out delay-150 path-1">
	</path>
	<path d="M 0,700 C 0,700 0,420 0,420 C 22.147321711015017,408.4685503407411 44.294643422030035,396.93710068148215 68,405 C 91.70535657796997,413.06289931851785 116.96874802289489,440.72014761481256 148,451 C 179.03125197710511,461.27985238518744 215.83036448639052,454.18230885926755 247,441 C 278.1696355136095,427.81769114073245 303.709794031543,408.5506169481174 330,397 C 356.290205968457,385.4493830518826 383.33045938743726,381.6152233482627 409,380 C 434.66954061256274,378.3847766517373 458.9683684187082,378.9884896588316 481,395 C 503.0316315812918,411.0115103411684 522.7960669377298,442.43081801641085 547,445 C 571.2039330622702,447.56918198358915 599.847363830372,421.28823827552486 628,427 C 656.152636169628,432.71176172447514 683.814477740782,470.41622888148964 714,466 C 744.185522259218,461.58377111851036 776.8947252065005,415.04684619851633 805,397 C 833.1052747934995,378.95315380148367 856.606621433216,389.39638632444496 883,396 C 909.393378566784,402.60361367555504 938.6787890606357,405.3676085037038 963,404 C 987.3212109393643,402.6323914962962 1006.6782223242412,397.1331796607396 1030,407 C 1053.3217776757588,416.8668203392604 1080.6083216423992,442.09967285333767 1108,452 C 1135.3916783576008,461.90032714666233 1162.888491106161,456.46812892590947 1193,459 C 1223.111508893839,461.53187107409053 1255.8377139329568,472.0278114430244 1280,460 C 1304.1622860670432,447.9721885569756 1319.7606531620122,413.42062530199297 1345,403 C 1370.2393468379878,392.57937469800703 1405.119673418994,406.28968734900354 1440,420 C 1440,420 1440,700 1440,700 Z" stroke="none" stroke-width="0" fill="#2f88ff" fill-opacity="0.53" class="transition-all duration-300 ease-in-out delay-150 path-2">
	</path>
	<path d="M 0,700 C 0,700 0,560 0,560 C 17.42279325424537,545.6808340762882 34.84558650849074,531.3616681525763 65,525 C 95.15441349150926,518.6383318474237 138.04044722028243,520.234161465983 170,534 C 201.95955277971757,547.765838534017 222.99262461037966,573.7016859834915 248,587 C 273.00737538962034,600.2983140165085 301.98905433819914,600.9590946000507 327,596 C 352.01094566180086,591.0409053999493 373.05115803682395,580.4619356163059 394,568 C 414.94884196317605,555.5380643836941 435.80631351450535,541.1931629347256 468,539 C 500.19368648549465,536.8068370652744 543.7235879051548,546.7654126447917 574,560 C 604.2764120948452,573.2345873552083 621.2993348648754,589.7451864861075 641,575 C 660.7006651351246,560.2548135138925 683.0790726353436,514.2538414107783 712,513 C 740.9209273646564,511.7461585892218 776.3843745937507,555.2394478707798 808,566 C 839.6156254062493,576.7605521292202 867.3834289896535,554.7883671061024 891,540 C 914.6165710103465,525.2116328938976 934.0819094476354,517.6070837048106 960,526 C 985.9180905523646,534.3929162951894 1018.2889332198047,558.7832980746547 1047,580 C 1075.7110667801953,601.2167019253453 1100.7623576731462,619.2597239965704 1121,609 C 1141.2376423268538,598.7402760034296 1156.6616360876103,560.1778059390637 1188,552 C 1219.3383639123897,543.8221940609363 1266.5910979764126,566.0290522471752 1294,565 C 1321.4089020235874,563.9709477528248 1328.9739720067394,539.7059850722356 1350,535 C 1371.0260279932606,530.2940149277644 1405.5130139966304,545.1470074638821 1440,560 C 1440,560 1440,700 1440,700 Z" stroke="none" stroke-width="0" fill="#2f88ff" fill-opacity="1" class="transition-all duration-300 ease-in-out delay-150 path-3">
	</path>
</svg>
