<svg id="eURLJMq8pBF1" xmlns="http://www.w3.org/2000/svg" xmlns:xlink="http://www.w3.org/1999/xlink" viewBox="0 0 1000 1000" shape-rendering="geometricPrecision" text-rendering="geometricPrecision" style="background-color:#611f37"><g transform="matrix(.962715 0.043648-.050169 1.106555 30.054257-75.102433)"><g transform="matrix(.1 0 0-.1 0 511)"><path d="M7940.6,2995.3c-23.8-28.1-12.9-32.4,71.3-32.4c64.8,0,114.5-15.1,146.9-43.2l51.9-41-194.4-2.2c-257.1-2.2-354.3-25.9-421.3-105.9-32.4-38.9-79.9-67-116.7-71.3-36.7-4.3-75.6-28.1-97.2-58.3-32.4-49.7-32.4-51.9,8.7-30.2c23.8,13,90.7,28.1,146.9,34.6c101.5,10.8,103.7,8.7,64.8-32.4-54-58.3-140.4-101.5-285.2-138.3-67-17.3-144.7-47.5-172.8-67-38.9-23.8-84.2-30.2-179.3-21.6-71.3,6.5-123.1,4.3-114.5-2.2c8.7-8.6,69.1-19.4,136.1-28.1L7109,2345l-166.4-51.9c-92.9-28.1-157.7-58.3-144.8-64.8c13-8.6-34.6-21.6-105.8-28.1-77.8-8.6-175-38.9-250.6-79.9-82.1-41-157.7-64.8-216-64.8-95,0-166.4-36.7-304.6-162l-86.4-77.8l140.4,88.6c146.9,92.9,209.6,116.7,274.4,103.7c30.2-6.5,23.8-17.3-36.7-54-209.6-127.5-242-149.1-272.2-198.8l-34.6-51.8l71.3,54c103.7,77.8,203.1,125.3,261.4,125.3c45.4-2.2,45.4-6.5-25.9-67-41.1-36.7-118.8-90.7-172.8-123.1l-97.2-58.3l64.8-13c45.4-10.8,51.8-15.1,21.6-19.4-36.7-4.3-34.6-6.5,10.8-19.4c49.7-15.1,41.1-21.6-75.6-67-112.3-43.2-170.7-49.7-421.3-49.7-265.7-2.2-332.7,6.5-734.6,90.7-375.9,79.9-481.8,92.9-693.5,95.1-218.2,0-278.7-8.6-479.6-69.1-125.3-36.7-324.1-116.7-440.7-175-185.8-92.9-237.6-110.2-410.5-127.5-211.7-21.6-291.7-54-429.9-170.7-155.5-129.6-244.1-272.2-384.6-613.6-239.8-583.3-293.8-665.4-442.9-665.4-153.4,0-311.1,45.4-527.1,155.6-172.8,86.4-572.5,235.5-620,233.3-6.5-2.2,136.1-73.5,313.3-162C872,-31.4,1006,-102.7,993,-104.8c-60.5-2.2-362.9,90.7-496.9,151.2-144.7,67-369.4,153.4-395.4,149.1-6.5,0,69.1-43.2,170.7-97.2c101.5-54,166.3-92.9,144.7-84.2-125.6,36.5-142.9,30-45.7-17.5c103.7-49.7,192.3-127.5,112.3-95.1C389.9,-63.9,154.4,3.1,122,3.1c-19.4,0,15.1-28.1,73.5-62.6c105.9-60.5,231.2-175,231.2-211.7c0-8.7,28.1-56.2,62.7-103.7c67-92.9,73.4-133.9,19.4-123.1-17.3,2.1-2.2-19.5,32.4-49.7c36.7-30.2,71.3-54,77.8-54s23.8-23.8,36.7-54s41.1-54,62.7-54c19.4,0,60.5-23.8,90.7-51.8c105.9-99.4,265.7-172.8,373.8-170.7c118.8,2.1,339.2,97.2,576.8,252.8c216,140.4,313.3,235.5,427.8,421.3c56.2,90.8,138.3,209.6,183.6,263.6C2470.5,128.6,2487.8,171.8,2518,390c21.6,159.9,157.7,557.4,209.6,609.2c8.6,8.6,60.5,23.8,112.3,32.4c84.3,13,95.1,10.8,82.1-21.6-47.5-123.1-82.1-319.8-75.6-417C2863.6,394.1,3071,9.5,3408,-444.1c231.2-308.9,274.4-473.1,276.5-1019.7v-287.4l103.7-112.3c56.2-62.7,149.1-200.9,207.4-306.8c58.3-105.8,140.4-229,181.5-276.5c64.8-73.5,71.3-92.9,60.5-164.2-10.8-67-2.2-90.7,41-138.3c49.7-51.9,64.8-56.2,246.3-56.2c177.2,0,194.4,4.3,181.5,38.9-25.9,71.3-159.9,216-211.7,229-38.9,10.8-58.3,36.8-77.8,105.9-15.1,49.7-71.3,188-129.6,306.8-56.2,118.8-110.2,244.1-118.8,278.7-13,58.4-8.6,56.2,155.6-64.8c95-67,200.9-146.9,235.5-177.1c71.3-58.3,162-192.3,162-242c0-17.3,34.6-67,77.8-110.2c60.5-62.6,73.4-88.6,56.2-116.7-13-25.9-13-62.6,2.1-110.2l21.6-73.4h142.6c77.8,0,166.3,6.5,194.4,15.1c45.4,10.8,47.5,21.6,36.7,101.5-10.8,69.2-36.7,110.2-121,190.1-92.9,84.3-108,110.2-108,183.6-2.2,114.5-25.9,149.1-246.3,343.5-108,92.9-248.4,220.4-313.3,283l-121,112.3l2.2,138.3c4.3,125.3,21.6,177.2,190.1,542.3c101.6,222.6,192.3,442.9,198.8,490.5c8.6,45.4,25.9,84.2,38.9,84.2s198.8-67,412.6-149.1c609.2-231.2,561.7-220.4,1075.9-235.5l458-15.1L6968.3,-913c136.1-140.4,300.3-289.5,362.9-328.4c60.5-41,112.3-86.4,112.3-105.8c0-45.4-205.2-155.6-345.7-188-64.8-15.1-175-23.8-242-21.6s-129.6-6.5-136.1-17.3c-6.5-13-47.5-21.6-88.6-21.6-58.3,0-77.8,10.8-92.9,49.7-10.8,28.1-32.4,60.5-47.5,71.3-23.8,17.3-172.8,23.8-259.2,10.8-19.5-4.3-149.1-293.8-149.1-334.9c0-36.8,25.9-38.9,298.1-32.4c207.4,2.2,315.4-4.3,362.9-23.8c60.5-25.9,84.3-21.6,313.3,71.3c136.1,54,300.3,110.2,365.1,123.1c64.8,13,140.4,28.1,164.2,32.4c58.3,13,181.5,200.9,181.5,278.7c0,32.4-43.2,134-97.2,224.7-51.9,92.9-110.2,205.2-129.6,250.6l-34.6,84.3l49.7-15.1c28.1-8.6,157.7-34.6,287.3-58.3c384.6-67,488.2-170.7,483.9-483.9-4.3-231.2-19.5-298.1-79.9-324.1-54-23.8-58.3-49.7-23.8-127.5c38.9-82.1-8.6-127.5-110.2-110.2-71.3,13-82.1,6.5-133.9-64.8-45.4-64.8-51.8-92.9-38.9-140.4c10.8-34.6,23.8-125.3,32.4-203.1c8.7-84.3,25.9-142.6,41.1-142.6c12.9,2.2,49.7,36.7,82.1,82.1c73.4,99.4,211.7,265.8,343.5,419.1l101.5,114.5l6.5,464.5c8.7,427.8,4.3,471-32.4,529.3-71.3,112.4-127.5,164.2-272.2,244.1-190.1,103.7-518.5,332.7-518.5,363c0,12.9,19.4,41,45.4,64.8C7886.4,-72.7,7962,182.3,7962,476.1v216L8076.7,904c367.3,667.6,386.7,695.6,514.2,650.3c41.1-12.9,103.7-43.2,138.3-64.8c36.7-21.6,86.4-38.9,110.2-38.9c25.9,0,84.3-30.2,129.6-67c45.4-36.7,164.2-114.5,263.6-175c131.8-77.8,177.2-118.8,172.8-146.9-10.8-62.7,67-129.6,146.9-129.6c92.9,0,200.9,64.8,287.4,175c84.2,103.7,82.1,164.2-17.3,319.7-151.2,244.1-306.8,520.7-358.6,639.5-32.4,71.3-88.6,168.5-127.5,216-36.7,47.5-103.7,136.1-146.9,194.4l-79.9,110.2l43.2,149.1c56.2,207.4,51.9,226.8-28.1,116.7l-71.3-95.1-6.5,125.3c-4.3,67-15.1,123.2-25.9,123.2-8.7,0-43.2-30.2-73.5-67l-58.3-67-166.4,54c-90.7,28.1-220.4,58.3-285.2,64.8l-118.8,13L8431,2965c172.8-56.2,192.3-88.6,51.8-88.6-90.7,0-142.6,15.1-248.4,75.6-144.8,80-250.6,95.1-293.8,43.3Zm-170.7-226.9c-28.1-23.8-79.9-43.2-118.8-43.2h-67l54,43.2c30.3,23.8,84.3,43.2,118.8,41h64.8l-51.8-41Z" fill="#fff"/></g></g></svg>
